<svg width="212" height="108" viewBox="0 0 212 108" fill="none" xmlns="http://www.w3.org/2000/svg">
<path d="M38.9171 0V8.16436H9.5087V22.3018H36.7257V30.0134H9.5087V45.8139H39.4483V53.9782H0.0609741V0.00290077H38.92L38.9171 0Z" fill="#284052"/>
<path d="M51.4677 0V45.811H78.9111V53.9753H42.0171V0H51.4677Z" fill="#284052"/>
<path d="M89.1918 0V45.811H116.635V53.9753H79.7412V0H89.1918Z" fill="#284052"/>
<path d="M156.324 0V8.16436H126.916V22.3018H154.133V30.0134H126.916V45.8139H156.856V53.9782H117.468V0.00290077H156.327L156.324 0Z" fill="#284052"/>
<path d="M163.131 0L176.662 42.7113H176.813L190.65 0H200.251L181.806 53.9753H171.296L153.303 0H163.131Z" fill="#284052"/>
<path d="M11.1893 107.997L0 54.0219H39.5382L41.2014 62.1862H10.9599L14.2108 77.9867H42.107L43.6947 85.6983H15.8739L18.8229 99.8358H48.8379L50.5011 108H11.1893V107.997Z" fill="#D4DCE3"/>
<path d="M53.3746 107.997L42.1854 54.0218H78.853L80.5161 62.1861H53.2991L62.8252 107.997H53.3746Z" fill="#D4DCE3"/>
<path d="M91.0987 107.997L79.9095 54.0218H116.577L118.24 62.1861H91.0233L100.549 107.997H91.0987Z" fill="#D4DCE3"/>
<path d="M128.596 107.997L117.407 54.0218H156.945L158.609 62.1861H128.367L131.618 77.9866H159.514L161.102 85.6982H133.281L136.23 99.8356H166.245L167.908 108H128.596V107.997Z" fill="#D4DCE3"/>
<path d="M164.356 107.997L171.386 54.0218H182.122L211.757 107.997H201.702L179.173 65.3613H179.022L173.957 107.997H164.356Z" fill="#D4DCE3"/>
<path d="M72.3426 7.25302C71.4719 8.15275 69.9887 9.69971 67.5767 12.2248C67.5767 12.2248 67.5767 12.2248 67.5738 12.2277C66.6072 13.4002 66.2415 14.8979 66.2415 14.8979C65.87 16.4158 66.0499 17.3678 65.9193 18.5316C65.6639 20.7868 64.3723 22.6733 63.3651 23.6253C61.4727 25.4218 60.4161 25.5321 56.698 25.7063C54.376 25.8137 49.1369 30.6722 48.1617 31.4356C48.121 31.4675 48.0717 31.4007 48.1094 31.363L55.7053 23.6891C49.729 19.9102 46.0051 11.296 45.2911 9.66778C45.2562 9.58652 45.3404 9.50525 45.4159 9.54879L61.0924 18.2907C61.4088 17.1124 61.6062 16.2562 61.7252 15.6322C61.7542 15.5015 62.3986 12.7008 64.9963 12.01C64.9963 12.01 66.5579 11.6385 67.3009 11.087C69.1092 9.74615 70.9842 8.11502 72.1946 7.10209C72.688 6.72478 72.8477 6.63191 72.868 6.65512C72.8883 6.67544 72.7751 6.82056 72.3455 7.25302H72.3426Z" fill="#BDCCD4"/>
</svg>
