<svg width="36" height="36" viewBox="0 0 36 36" fill="none" xmlns="http://www.w3.org/2000/svg">
<path d="M23.175 24.78L18.66 20.265C18.495 20.1 18.3 20.07 18.195 20.07C18.09 20.07 17.895 20.1 17.73 20.265L13.2 24.795C12.69 25.305 11.895 26.13 9.23999 26.13L14.805 31.68C15.6487 32.5227 16.7925 32.996 17.985 32.996C19.1775 32.996 20.3212 32.5227 21.165 31.68L26.745 26.115C25.38 26.115 24.24 25.845 23.175 24.78ZM13.2 11.205L17.73 15.735C17.85 15.855 18.03 15.93 18.195 15.93C18.36 15.93 18.54 15.855 18.66 15.735L23.145 11.25C24.21 10.14 25.425 9.88501 26.79 9.88501L21.21 4.32001C20.3662 3.47731 19.2225 3.00397 18.03 3.00397C16.8375 3.00397 15.6937 3.47731 14.85 4.32001L9.28499 9.87001C11.925 9.87001 12.735 10.74 13.2 11.205Z" fill="#32BCAD"/>
<path d="M31.665 14.775L28.29 11.385H26.4C25.59 11.385 24.7799 11.715 24.2249 12.3L19.7249 16.8C19.3049 17.22 18.7499 17.43 18.1949 17.43C17.6234 17.4219 17.0764 17.1967 16.6649 16.8L12.1349 12.255C11.5649 11.685 10.7849 11.355 9.95995 11.355H7.75495L4.31995 14.805C3.47724 15.6487 3.00391 16.7925 3.00391 17.985C3.00391 19.1775 3.47724 20.3212 4.31995 21.165L7.75495 24.615H9.97495C10.7849 24.615 11.5649 24.285 12.1499 23.715L16.6799 19.185C17.0999 18.765 17.6549 18.555 18.2099 18.555C18.7649 18.555 19.3199 18.765 19.7399 19.185L24.2549 23.7C24.8249 24.27 25.6049 24.6 26.43 24.6H28.3199L31.6949 21.21C32.5419 20.3514 33.0143 19.1923 33.0087 17.9863C33.003 16.7803 32.5199 15.6256 31.665 14.775Z" fill="#32BCAD"/>
</svg>
