<svg width="20" height="18" viewBox="0 0 20 18" fill="none" xmlns="http://www.w3.org/2000/svg">
<path d="M19.6143 0.437026C18.9847 1.09072 17.9078 2.21395 16.1599 4.04561C16.1599 4.04561 16.1582 4.04727 16.1582 4.04893V4.05059C15.4574 4.90172 15.1923 5.9901 15.1923 5.9901C14.9239 7.09176 15.0531 7.78361 14.9587 8.62811C14.7731 10.2657 13.8371 11.6344 13.1081 12.3263C11.7363 13.6304 10.9692 13.71 8.27525 13.8361C6.59196 13.9157 2.79296 17.4414 2.08883 17.9938C2.05901 18.0171 2.02256 17.969 2.05072 17.9424L7.5562 12.3727C3.22372 9.62856 0.524827 3.37533 0.00625508 2.19238C-0.0202534 2.13431 0.0427022 2.07458 0.097376 2.1061L11.4629 8.45224C11.6915 7.59613 11.8357 6.97562 11.9218 6.52268C11.9218 6.51771 11.9218 6.52268 11.9218 6.52102C11.9434 6.42645 12.4106 4.39237 14.2927 3.89132C14.2927 3.89132 15.4243 3.62088 15.9627 3.22103C17.2732 2.24713 18.6334 1.06417 19.5115 0.327524C19.8694 0.0537691 19.9854 -0.0142549 19.9986 0.00233631C20.0119 0.0189275 19.9324 0.123452 19.6209 0.435367L19.6143 0.437026Z" fill="#F8F8F4"/>
</svg>
