<svg width="37" height="33" viewBox="0 0 37 33" fill="none" xmlns="http://www.w3.org/2000/svg">
<path d="M36.2864 0.801214C35.1217 1.99965 33.1294 4.0589 29.8958 7.41696C29.8958 7.41696 29.8927 7.42 29.8927 7.42304V7.42609C28.5962 8.98649 28.1058 10.9819 28.1058 10.9819C27.6092 13.0016 27.8483 14.27 27.6736 15.8182C27.3303 18.8204 25.5986 21.3298 24.2499 22.5982C21.7121 24.989 20.293 25.135 15.3092 25.3662C12.1951 25.5122 5.16697 31.9758 3.86433 32.9887C3.80916 33.0313 3.74173 32.9431 3.79384 32.8944L13.979 22.6834C5.96389 17.6524 0.970931 6.1881 0.0115719 4.01936C-0.0374688 3.9129 0.0789992 3.80339 0.180146 3.86119L21.2064 15.4958C21.6293 13.9262 21.896 12.7886 22.0554 11.9583C22.0554 11.9491 22.0554 11.9583 22.0554 11.9552C22.0952 11.7818 22.9596 8.05268 26.4415 7.13408C26.4415 7.13408 28.5349 6.63828 29.531 5.90522C31.9555 4.11973 34.4719 1.95099 36.0963 0.600461C36.7584 0.0985766 36.9729 -0.026134 36.9975 0.00428324C37.022 0.0347005 36.8749 0.226329 36.2986 0.798173L36.2864 0.801214Z" fill="#284052"/>
</svg>
